<?xml version="1.0" standalone="no"?>
<!DOCTYPE svg PUBLIC "-//W3C//DTD SVG 20010904//EN"
 "http://www.w3.org/TR/2001/REC-SVG-20010904/DTD/svg10.dtd">
<svg version="1.0" xmlns="http://www.w3.org/2000/svg"
 width="300.000000pt" height="300.000000pt" viewBox="0 0 300.000000 300.000000"
 preserveAspectRatio="xMidYMid meet">
<metadata>
Created by potrace 1.14, written by Peter Selinger 2001-2017
</metadata>
<g transform="translate(0.000000,300.000000) scale(0.100000,-0.100000)"
fill="#000000" stroke="none">
<path d="M1233 2632 l-81 -77 -21 -243 -21 -244 67 -74 c36 -41 69 -74 73 -74
4 0 42 32 86 71 43 40 80 72 81 73 1 1 11 110 23 244 20 234 20 244 3 265 -37
46 -118 137 -123 136 -3 0 -42 -35 -87 -77z"/>
<path d="M1862 2633 l-83 -78 -21 -242 c-23 -275 -31 -237 65 -343 55 -61 46
-63 155 38 l64 58 19 214 c26 300 30 272 -49 358 l-68 73 -82 -78z"/>
<path d="M630 1931 l-84 -78 69 -76 70 -77 165 0 165 0 82 73 c45 39 82 75 82
78 1 4 -31 41 -70 83 l-71 76 -161 0 -162 0 -85 -79z"/>
<path d="M1390 1931 l-84 -78 69 -76 70 -76 98 -1 98 0 84 76 84 77 -72 78
-72 79 -95 0 -95 -1 -85 -78z"/>
<path d="M2027 1943 c-40 -36 -78 -71 -85 -78 -10 -9 3 -28 59 -88 l71 -77
165 0 165 0 83 76 84 76 -71 79 -72 79 -163 0 -164 0 -72 -67z"/>
<path d="M1153 1712 l-82 -77 -12 -142 -12 -142 51 -58 c94 -109 79 -107 175
-20 l84 76 12 145 13 146 -69 75 c-37 41 -70 75 -73 74 -3 0 -42 -34 -87 -77z"/>
<path d="M1782 1714 l-83 -79 -9 -100 c-18 -188 -18 -184 52 -264 34 -39 65
-71 68 -71 3 0 41 32 85 72 91 81 88 74 99 263 l7 110 -68 74 -69 74 -82 -79z"/>
<path d="M565 1206 c-91 -84 -91 -69 4 -168 l55 -58 164 0 c185 0 158 -10 281
102 l54 49 -74 75 -73 74 -166 0 -165 -1 -80 -73z"/>
<path d="M1325 1205 l-80 -73 25 -29 c13 -15 45 -49 69 -75 l45 -48 99 0 98 0
80 72 c44 40 78 75 77 80 -2 4 -31 39 -66 78 l-63 70 -102 0 -102 -1 -80 -74z"/>
<path d="M1947 1205 l-78 -75 67 -75 67 -75 170 0 169 0 79 71 c44 39 79 74
79 78 0 4 -30 39 -66 79 l-66 72 -171 0 -172 -1 -78 -74z"/>
<path d="M1092 991 l-82 -76 -24 -240 -23 -240 70 -78 c38 -43 73 -76 77 -75
4 2 43 36 86 77 l77 74 23 240 23 241 -59 67 c-33 36 -65 71 -72 77 -10 7 -34
-10 -96 -67z"/>
<path d="M1718 991 l-82 -77 -22 -239 c-17 -185 -20 -242 -11 -255 7 -9 38
-45 69 -80 l58 -63 83 76 83 75 23 242 c19 198 20 244 10 258 -7 9 -39 45 -71
78 l-58 62 -82 -77z"/>
</g>
</svg>
